{"title":"F1 2013 Race 2 Malaysia Practice 1 (HD.720p.H264.AC3) TBK","uid":8288351,"size":6408833056,"categoryP":"video","categoryS":"hd___tv_shows","magnet":"?xt=urn:btih:303e45f2935a9dc16f028700cf64f4263e64fd47&amp;dn=F1+2013+Race+2+Malaysia+Practice+1+%28HD.720p.H264.AC3%29+TBK&amp;tr=udp%3A%2F%2Ftracker.openbittorrent.com%3A80&amp;tr=udp%3A%2F%2Fopen.demonii.com%3A1337&amp;tr=udp%3A%2F%2Ftracker.coppersurfer.tk%3A6969&amp;tr=udp%3A%2F%2Fexodus.desync.com%3A6969","seeders":0,"leechers":1,"uploader":"jorrell073","files":-1,"time":1363984833,"description":"Formula 1 2013\n\nMalaysia Practice Session 1\n\nRound 2: Malaysia. Kuala Lumpur. (22-24th March 2013)\nCircuit: Sepang International Circuit\nAir Date: 22.03.13\nTime: 01.45am-03.50am\nRunning Time: 1hr:59min\nCoverage of the 1st Practice Session for the Malaysian GP, broadcast Live via SKY SPORTS F1 HD at the Sepang Circuit.\n\nTo reduce SKY's LIVE audio sync errors during add-breaks,the commercials have been left intact. Removing them can cause considerable encoding and playback problems as the live stream switches from Dolby Digital to standard stereo output and back during such breaks, this plays havoc with encoding the audio feed as pure 6 channel AC3 Digital.\n\nAll my torrents for F1 2013 are wrapped into MKV format. Resolution is downscaled from 1080i&gt;50 source to 720p with 6 channel AC3 Dolby Digital Audio.\nThese video files will play very fluidly with the standard media players such as VLC, WMP, KM Player, WMC, MP-HC.\n\nH.264 High Profile 4.1 has been used in combination with 50fps to maintain smooth and fluid playback with HD quality...\n\n\nFOR ALL YOUR LATEST F1 NEWS, GOSSIP, TRACK GUIDES, DISCUSSION &amp; FULL TORRENT INFORMATION IN MORE DETAIL, AND ACCESS TO MUCH MORE, PLEASE KEEP YOUR EYE ON THE FORUM: &lt;a href=&quot;\nhttp://www.f1racingleague.co.uk/f82-formula-1-2013-torrents&quot; rel=&quot;nofollow&quot; target=&quot;_NEW&quot;&gt;\nhttp://www.f1racingleague.co.uk/f82-formula-1-2013-torrents&lt;/a&gt;\n\nJoin my Twitter Feed for all Formula 1 info &amp; get notified via tweets when torrents become available!:\nFollow me @\n\nThank you's,comments and suggestions are always welcome...\n\nTheblacknight\n\n**For anyone having mkv playback issues on Windows 7 or 8, I do recommend installing the Shark Codec Packs which are available free on the link below:\n(*NOTE: sharks default settings work well for WMP)\n\nVideo File Encoding Details:\n\nComplete name : R:Recorded TVFormula 1 2013Kuala LumpurFormula 1 2013 Malaysia Practice 1Formula 1 2013 Malaysian Practice 1 HD.720p.H264.AC3.TBK.mkv\nFormat : Matroska\nFormat version : Version 2\nFile size : 5.97 GiB\nDuration : 1h 59mn\nOverall bit rate : 7 175 Kbps\nEncoded date : UTC 2013-03-22 04:55:47\nWriting application : Lavf54.63.100\nWriting library : Lavf54.63.100\n\nVideo\nID : 1\nFormat : AVC\nFormat/Info : Advanced Video Codec\nFormat profile : &lt;a class=&quot;__cf_email__&quot; href=&quot;/cdn-cgi/l/email-protection&quot; data-cfemail=&quot;92dafbf5fad2dea6bca3&quot;&gt;[email&amp;#160;protected]&lt;/a&gt;&lt;script cf-hash='f9e31' type=&quot;text/javascript&quot;&gt;\n/* &lt;![CDATA[ */!function(){try{var t=&quot;currentScript&quot;in document?document.currentScript:function(){for(var t=document.getElementsByTagName(&quot;script&quot;),e=t.length;e--;)if(t[e].getAttribute(&quot;cf-hash&quot;))return t[e]}();if(t&amp;&amp;t.previousSibling){var e,r,n,i,c=t.previousSibling,a=c.getAttribute(&quot;data-cfemail&quot;);if(a){for(e=&quot;&quot;,r=parseInt(a.substr(0,2),16),n=2;a.length-n;n+=2)i=parseInt(a.substr(n,2),16)^r,e+=String.fromCharCode(i);e=document.createTextNode(e),c.parentNode.replaceChild(e,c)}}}catch(u){}}();/* ]]&gt; */&lt;/script&gt;\nFormat settings, CABAC : Yes\nFormat settings, ReFrames : 4 frames\nCodec ID : V_MPEG4/ISO/AVC\nDuration : 1h 59mn\nBit rate : 6 648 Kbps\nWidth : 1 280 pixels\nHeight : 720 pixels\nDisplay aspect ratio : 16:9\nFrame rate mode : Constant\nFrame rate : 50.000 fps\nColor space : YUV\nChroma subsampling : 4:2:0\nBit depth : 8 bits\nScan type : Progressive\nBits/(Pixel*Frame) : 0.144\nStream size : 5.53 GiB (93%)\nWriting library : x264 core 130 r2273\n\nAudio\nID : 2\nFormat : AC-3\nFormat/Info : Audio Coding 3\nMode extension : CM (complete main)\nFormat settings, Endianness : Big\nCodec ID : A_AC3\nDuration : 1h 59mn\nBit rate mode : Constant\nBit rate : 384 Kbps\nChannel(s) : 6 channels\nChannel positions : Front: L C R, Side: L R, LFE\nSampling rate : 48.0 KHz\nBit depth : 16 bits\nCompression mode : Lossy\nDelay relative to video : 40ms\nStream size : 327 MiB (5%)\nDefault : Yes\nForced : No","torrent":{"xt":"urn:btih:303e45f2935a9dc16f028700cf64f4263e64fd47","amp;dn":"F1+2013+Race+2+Malaysia+Practice+1+%28HD.720p.H264.AC3%29+TBK","amp;tr":["udp%3A%2F%2Ftracker.openbittorrent.com%3A80","udp%3A%2F%2Fopen.demonii.com%3A1337","udp%3A%2F%2Ftracker.coppersurfer.tk%3A6969","udp%3A%2F%2Fexodus.desync.com%3A6969"],"infoHash":"303e45f2935a9dc16f028700cf64f4263e64fd47","infoHashBuffer":{"type":"Buffer","data":[48,62,69,242,147,90,157,193,111,2,135,0,207,100,244,38,62,100,253,71]},"announce":[],"urlList":[]}}